<?xml version="1.0" standalone="no"?>
<!DOCTYPE svg PUBLIC "-//W3C//DTD SVG 20010904//EN"
 "http://www.w3.org/TR/2001/REC-SVG-20010904/DTD/svg10.dtd">
<svg version="1.0" xmlns="http://www.w3.org/2000/svg"
 width="64.000000pt" height="64.000000pt" viewBox="0 0 64.000000 64.000000"
 preserveAspectRatio="xMidYMid meet">

<g transform="translate(0.000000,64.000000) scale(0.100000,-0.100000)"
fill="#000000" stroke="none">
<path d="M417 542 c-13 -14 -17 -39 -17 -106 0 -83 1 -89 29 -117 46 -45 123
-32 149 26 15 33 16 150 1 178 -17 32 -28 37 -90 37 -42 0 -60 -5 -72 -18z
m63 -42 c0 -22 5 -40 10 -40 6 0 10 18 10 40 0 36 3 40 25 40 33 0 45 -26 45
-100 0 -114 -55 -163 -124 -109 -24 19 -26 26 -26 103 0 85 8 106 42 106 14 0
18 -8 18 -40z"/>
<path d="M70 420 c-18 -18 -20 -33 -20 -130 0 -156 -9 -150 218 -150 161 0
181 2 195 18 19 21 24 107 7 117 -6 4 -10 -13 -10 -42 0 -27 -5 -54 -12 -61
-17 -17 -349 -17 -366 0 -16 16 -16 220 0 236 8 8 57 12 155 12 89 0 143 4
143 10 0 6 -55 10 -145 10 -132 0 -147 -2 -165 -20z"/>
<path d="M130 360 c0 -5 5 -10 11 -10 5 0 7 5 4 10 -3 6 -8 10 -11 10 -2 0 -4
-4 -4 -10z"/>
<path d="M260 360 c0 -5 5 -10 11 -10 5 0 7 5 4 10 -3 6 -8 10 -11 10 -2 0 -4
-4 -4 -10z"/>
<path d="M325 360 c-3 -5 -1 -10 4 -10 6 0 11 5 11 10 0 6 -2 10 -4 10 -3 0
-8 -4 -11 -10z"/>
<path d="M160 290 c0 -5 5 -10 10 -10 6 0 10 5 10 10 0 6 -4 10 -10 10 -5 0
-10 -4 -10 -10z"/>
<path d="M290 290 c0 -5 5 -10 10 -10 6 0 10 5 10 10 0 6 -4 10 -10 10 -5 0
-10 -4 -10 -10z"/>
<path d="M140 220 c0 -6 48 -10 125 -10 77 0 125 4 125 10 0 6 -48 10 -125 10
-77 0 -125 -4 -125 -10z"/>
</g>
</svg>
