<?xml version="1.0" standalone="no"?>
<!DOCTYPE svg PUBLIC "-//W3C//DTD SVG 20010904//EN"
 "http://www.w3.org/TR/2001/REC-SVG-20010904/DTD/svg10.dtd">
<svg version="1.0" xmlns="http://www.w3.org/2000/svg"
 width="64.000000pt" height="64.000000pt" viewBox="0 0 64.000000 64.000000"
 preserveAspectRatio="xMidYMid meet">

<g transform="translate(0.000000,64.000000) scale(0.100000,-0.100000)"
fill="#000000" stroke="none">
<path d="M140 441 c-13 -25 -13 -71 0 -71 6 0 10 9 10 19 0 51 1 51 184 51 95
0 175 -2 177 -5 7 -6 -16 -219 -25 -233 -4 -8 -36 -12 -82 -12 -48 0 -73 -4
-69 -10 10 -17 151 -12 165 5 7 8 25 15 40 15 46 0 53 21 22 66 -22 31 -28 54
-32 114 l-5 75 -187 3 c-177 2 -188 1 -198 -17z m420 -212 c0 -5 -9 -9 -20 -9
-16 0 -20 7 -20 33 l1 32 19 -24 c11 -13 20 -27 20 -32z"/>
<path d="M135 355 c-16 -7 -42 -18 -58 -24 -22 -8 -27 -17 -27 -43 0 -62 20
-109 66 -154 61 -59 75 -61 128 -25 62 43 87 87 87 157 1 59 -8 73 -46 74 -11
0 -29 7 -39 15 -24 18 -71 18 -111 0z m45 -126 l0 -120 -30 21 c-50 35 -72 76
-74 133 -1 49 0 51 29 57 17 4 40 12 50 18 11 6 21 12 23 12 1 0 2 -54 2 -121z
m105 91 c36 -7 41 -29 25 -92 -13 -45 -83 -124 -101 -113 -10 7 -13 218 -3
228 4 3 16 1 28 -5 11 -6 35 -14 51 -18z"/>
<path d="M250 285 c0 -8 -7 -15 -15 -15 -8 0 -15 -4 -15 -10 0 -5 7 -10 15
-10 8 0 15 -7 15 -15 0 -8 5 -15 10 -15 6 0 10 7 10 15 0 8 7 15 15 15 8 0 15
5 15 10 0 6 -7 10 -15 10 -8 0 -15 7 -15 15 0 8 -4 15 -10 15 -5 0 -10 -7 -10
-15z"/>
</g>
</svg>
