<?xml version="1.0" standalone="no"?>
<!DOCTYPE svg PUBLIC "-//W3C//DTD SVG 20010904//EN"
 "http://www.w3.org/TR/2001/REC-SVG-20010904/DTD/svg10.dtd">
<svg version="1.0" xmlns="http://www.w3.org/2000/svg"
 width="64.000000pt" height="64.000000pt" viewBox="0 0 64.000000 64.000000"
 preserveAspectRatio="xMidYMid meet">

<g transform="translate(0.000000,64.000000) scale(0.100000,-0.100000)"
fill="#000000" stroke="none">
<path d="M92 467 c-16 -19 -42 -279 -30 -295 8 -9 64 -12 220 -12 176 0 210 2
214 15 4 10 20 15 44 15 52 0 55 18 13 80 -34 51 -35 55 -29 117 5 44 3 70 -5
79 -16 19 -411 21 -427 1z m413 -16 c5 -9 -8 -164 -21 -238 l-5 -33 -199 0
c-109 0 -201 3 -203 8 -5 8 20 239 28 260 5 15 390 18 400 3z m55 -232 c0 -5
-11 -9 -25 -9 -22 0 -25 4 -25 38 l1 37 24 -28 c14 -15 25 -32 25 -38z"/>
</g>
</svg>
