<?xml version="1.0" standalone="no"?>
<!DOCTYPE svg PUBLIC "-//W3C//DTD SVG 20010904//EN"
 "http://www.w3.org/TR/2001/REC-SVG-20010904/DTD/svg10.dtd">
<svg version="1.0" xmlns="http://www.w3.org/2000/svg"
 width="64.000000pt" height="64.000000pt" viewBox="0 0 64.000000 64.000000"
 preserveAspectRatio="xMidYMid meet">

<g transform="translate(0.000000,64.000000) scale(0.100000,-0.100000)"
fill="#000000" stroke="none">
<path d="M90 515 c0 -9 -13 -24 -30 -33 -37 -21 -38 -35 -5 -50 14 -7 30 -23
35 -37 5 -14 14 -25 20 -25 6 0 15 11 20 25 5 14 21 30 35 37 33 15 32 29 -5
50 -17 9 -30 24 -30 33 0 8 -9 15 -20 15 -11 0 -20 -7 -20 -15z m42 -37 l23
-23 -22 -22 -23 -22 -22 22 -23 22 20 21 c11 12 21 22 22 23 1 1 12 -9 25 -21z"/>
<path d="M215 470 c11 -5 74 -6 141 -3 170 8 165 12 162 -135 l-3 -117 -195 0
-195 0 -3 73 c-4 90 -22 96 -22 6 0 -109 -11 -104 220 -104 187 0 200 1 210
19 14 28 13 244 -2 259 -8 8 -60 12 -173 11 -99 0 -152 -4 -140 -9z"/>
<path d="M173 384 l-22 -24 25 -25 26 -26 25 26 26 25 -23 25 c-28 30 -29 30
-57 -1z m37 -24 c0 -5 -4 -10 -10 -10 -5 0 -10 5 -10 10 0 6 5 10 10 10 6 0
10 -4 10 -10z"/>
<path d="M60 140 c0 -6 93 -10 260 -10 167 0 260 4 260 10 0 6 -93 10 -260 10
-167 0 -260 -4 -260 -10z"/>
</g>
</svg>
