<?xml version="1.0" standalone="no"?>
<!DOCTYPE svg PUBLIC "-//W3C//DTD SVG 20010904//EN"
 "http://www.w3.org/TR/2001/REC-SVG-20010904/DTD/svg10.dtd">
<svg version="1.0" xmlns="http://www.w3.org/2000/svg"
 width="64.000000pt" height="64.000000pt" viewBox="0 0 64.000000 64.000000"
 preserveAspectRatio="xMidYMid meet">

<g transform="translate(0.000000,64.000000) scale(0.100000,-0.100000)"
fill="#000000" stroke="none">
<path d="M60 381 c0 -91 -2 -102 -25 -129 -14 -17 -25 -39 -25 -51 0 -20 5
-21 113 -21 64 0 117 -4 123 -10 7 -7 79 -9 195 -8 l184 3 3 25 c2 17 -6 34
-23 50 -23 21 -25 30 -25 107 l0 83 -95 0 c-95 0 -95 0 -95 25 l0 25 -165 0
-165 0 0 -99z m300 64 c0 -10 -11 -15 -35 -15 l-35 0 0 -70 0 -70 -100 0 -100
0 0 85 0 85 135 0 c113 0 135 -2 135 -15z m190 -110 l0 -66 -117 3 -118 3 -3
63 -3 62 121 0 120 0 0 -65z m-295 -105 c-28 -29 -32 -30 -120 -30 -51 0 -95
3 -98 7 -4 3 3 17 15 30 20 21 30 23 127 23 l105 0 -29 -30z m335 -15 l23 -25
-178 0 -178 0 23 25 c23 24 28 25 155 25 127 0 132 -1 155 -25z"/>
</g>
</svg>
